<?xml version="1.0" encoding="UTF-8"?>
<svg id="Layer_1" data-name="Layer 1" xmlns="http://www.w3.org/2000/svg" viewBox="0 0 5.01 5.02">
  <defs>
    <style>
      .cls-1 {
        fill: #ccc4ab;
      }

      .cls-1, .cls-2 {
        stroke-width: 0px;
      }

      .cls-2 {
        fill: #d47e33;
      }
    </style>
  </defs>
  <g>
    <path class="cls-1" d="M5.01.19s-.22.36-.61.85c-.39.49-.92,1.11-1.5,1.69-.58.58-1.2,1.12-1.69,1.51-.48.39-.84.61-.84.61,0,0,.22-.36.61-.84.39-.48.92-1.11,1.5-1.68.58-.58,1.2-1.12,1.69-1.51.48-.39.84-.62.84-.62Z"/>
    <path class="cls-1" d="M5.01,4.83s-.36-.22-.84-.61c-.48-.39-1.11-.92-1.69-1.5-.58-.58-1.12-1.2-1.5-1.68C.6.55.38.19.38.19c0,0,.36.23.84.62.48.39,1.11.92,1.69,1.51.58.58,1.12,1.2,1.5,1.68.39.48.61.84.61.84Z"/>
  </g>
  <path class="cls-2" d="M2.51.19c0,.1.08.19.19.19s.19-.09.19-.19-.08-.19-.19-.19-.19.08-.19.19Z"/>
  <circle class="cls-2" cx="2.69" cy="4.84" r=".19"/>
  <circle class="cls-2" cx="4.83" cy="2.52" r=".19"/>
  <circle class="cls-2" cx=".19" cy="2.52" r=".19"/>
</svg>