<?xml version="1.0" encoding="UTF-8"?>
<svg id="Layer_1" data-name="Layer 1" xmlns="http://www.w3.org/2000/svg" viewBox="0 0 40.71 43.95">
  <defs>
    <style>
      .cls-1 {
        fill: none;
      }

      .cls-1, .cls-2, .cls-3, .cls-4 {
        stroke-width: 0px;
      }

      .cls-2 {
        fill: #ccc4ab;
      }

      .cls-3 {
        fill: #000;
      }

      .cls-4 {
        fill: #d47e33;
      }
    </style>
  </defs>
  <path class="cls-1" d="M21.04,36.68c-.03-.51-.65-1.77,2.11-3.76,0,0,2.08-2.73,2.66-4.57.3-.95.72-2.26.4-4.86-.2-.09-.41-.19-.57-.16.12-.2.32-.17.53-.11-.22-1.61-.72-3.71-1.67-6.49-.25.1-.75-.02-.84.25.9,2.49,1.47,5.04,1.2,7.23-.78,6.49-1.82,7.15-3.64,8.11,0,0-.98.9-1.63,1.5,0,0-.33,1.98,0,2.76.11.27.09.7.01,1.14h1.55c.08-.46-.11-.74-.13-1.05Z"/>
  <path class="cls-1" d="M20.93,36.57c-.15-.32-1.32-.9-2.4-.96-1.08-.06-2.53.44-2.53.44.5.52,1.52,0,1.88-.02.37-.02,1.32.06,1.54.25.22.19,1.08.63,1.3.67.21.04.37-.06.21-.38Z"/>
  <g>
    <path class="cls-2" d="M19.61,36.59c-.33-.78,0-2.76,0-2.76.65-.6,1.63-1.5,1.63-1.5,1.82-.96,2.86-1.62,3.64-8.11.26-2.2-.3-4.75-1.2-7.23-.02.05-.02.11,0,.2-.75-.03-.25-.41-.85-.52.1-.15.35-.22.64-.25-1.78-4.65-4.65-8.98-5.48-10.27-1.3-2.04-.11-6.36-.58-6.13-1.09.54-1.43,1.4-1.43,1.4,0,0-.78.83-1.51,4.25-.73,3.42.93,5.05,2.21,9.47,1.28,4.43.28,5.85,0,7.53-.28,1.68-.57,1.2-1.8,4.56-.04.12-.07.23-.11.34,0,.12.04.2.14.23,0,.12-.11.14-.25.14-.73,2.77.94,3.44.94,3.44,0,0,.07,1.02,1.23,1.74,1.17.72.52,1.38,1.59,3,.4.61.5,1.16.47,1.62h.75c.07-.44.1-.87-.01-1.14ZM23.39,23.08c-.09.22-.33.08-.28-.13-.12.1-.32.14-.56.13.25-.27-.11-.26.14-.52.53-.1.31.5.71.52ZM22.96,18.36c-.28.3-1.07-.01-1.13,0,.07-.62.67.16,1.13,0ZM22.68,15.74c-.21.19-.62.21-.99.26-.11-.5.67-.16.99-.26ZM21.97,16.53c-.28.75-1.57-.03,0,0h0ZM16.34,8.84s-.33-3.22-.04-3.44c.29-.23,1.27,6.63,3.04,8.31,1.07,1.02,1.73,5.06,1.9,8.68.26-.03.5-.08.6.03.4-.13-.21-.35.14-.52.29-.06.37.09.57.13-.33.14-.4.51-.71.66,0,.26.38.17.28.52h-.42c.04.23.24.3.57.26-.32.42-.64-.27-.99-.28.05,2.06-.06,3.89-.37,4.79-1.22,3.59-1.88,1.44-1.43-.28,0,0,1-2.35.62-5.19-.2.07-.53.03-.8.04.07-.36.46-.35.77-.3-.36-2.8-.29-5.77-1.35-7.63-1.08-1.91-2.36-5.77-2.36-5.77ZM15.88,25.3c.06-.44.78.2.71-.13.56.3-.63.36-.71.13ZM17.88,31.19c-.37.02-1.39.54-1.88.02,0,0,1.45-.5,2.53-.44,1.08.06,2.25.64,2.4.96.15.32,0,.42-.21.38-.22-.04-1.08-.48-1.3-.67-.22-.19-1.17-.27-1.54-.25Z"/>
    <path class="cls-2" d="M19.15,39.4s.33-.86.47-1.68h-.75c-.05.77-.47,1.26-.47,1.26.22.6.75.42.75.42Z"/>
  </g>
  <path class="cls-1" d="M23.09,31.8c-.32-.27-.65,0-1.36-.69,0,0-.32.6.36.9.3.13.53.3.74.48h.87c-.25-.29-.45-.57-.6-.69Z"/>
  <path class="cls-1" d="M12.2,27.79c-.29.08-.93-.16-.99.13.12.11,1.11.36.99-.13Z"/>
  <g>
    <path class="cls-4" d="M7.55,28.11c-.04.08-.07.17-.11.25.09-.03.1-.14.11-.25Z"/>
    <path class="cls-4" d="M16.3,42.73c-.78-1.2-1.37-4.44-1.37-4.44.78-3.84-2.99-5.71-3.57-8.29-.06-.27-.08-.5-.09-.72-.33-.05-.72-.25-1.31-.24-1.25,0-3.08.38-.71-.26-.12-.11-.08-.36-.28-.39.27-.1,1.75-.03,1.98.65.23-.02.29-.2.38-.35.33-1.44,1.91-2.26,2.63-6.8.29-1.83,0-3.35-.55-4.57-.34.26-1.09.28-1.32-.06.17-.22.91-.18,1.26-.07-1.19-2.51-3.46-3.75-3.94-3.85-.71-.15.25,1.23.25,1.23,0,0,.19.49.5,1.43.96,2.97-.62,6.08-3.02,8.66-2.41,2.58-2.47,7.87-2.21,8.71.26.84,1.69,3.18,1.69,3.18,1.36,3.9,5.07,3.6,5.07,3.6,5.07,1.26,4.16,3.73,4.16,3.73.39.18.46,0,.46,0,.65-.78,0-1.14,0-1.14ZM8.83,27.2c.14-.37.6.04.85,0-.29.29-.6.25-.85,0ZM12.09,26.15c-.21.2-.62.21-.99.26-.11-.5.67-.17.99-.26ZM9.71,38.66s-1.7-1.71-2.04-2.56c-.34-.85-1.9-3.06-1.85-3.95.05-.9.83-6.02,1.75-6.63.92-.61,2.98-3.3,3.14-4.42.16-1.12.42-4.99,0-5.62-.42-.63.89.04.94,1.89.05,1.84.34,3.37,0,4.18-.34.81-1.99,3.37-3.06,4.76-.36.47-.7,1.06-.99,1.68.6.1-.45.54.24.51-.01.19-.26.16-.5.13-.28.77-.47,1.56-.49,2.29.18.1.4.29.71.2-.28-.31.58,0,1.28-.26-.33.48-1.49.2-1.84.65-.05,0-.09,0-.12-.02,0,.08,0,.17.02.25.29,1.66,1.23,3.23,1.93,4.18.7.94,1.31,1.75.89,2.74ZM9.82,33.87c-.11.17-1.38.33-1.27-.13.27.3.91-.25,1.27.13ZM10.67,31.26c-.28.17.22.63-.56.52.39-.38-.14-.64-.71-.52.05-.26-.03-.41-.28-.39.97-.29,1.45.21,2.26.52-.18.54-.41-.05-.71-.13ZM14.35,38.2c-.42.03-.39-.18-1.01,0-.62.18-1.07.03-1.07.43s.2.38-.19.95c-.39.57-.46,0-.46,0,0,0-.23-.84.29-1.23.52-.39.81-.51,1.17-.57.36-.06.97-.18,1.27,0,.29.18.42.39,0,.42Z"/>
    <path class="cls-4" d="M9.4,28.77c.12.11,1.11.36.99-.13-.29.08-.93-.16-.99.13Z"/>
  </g>
  <path class="cls-3" d="M24.66,12.24c-.08-.02-.16-.04-.25-.06.03.09.06.18.09.27.09-.04.15-.09.15-.21Z"/>
  <g>
    <path class="cls-1" d="M33.71,29.28c.11,0,.22.01.34.03-.03-.37-.07-.87-.12-1.44-.13.07-.29.12-.51.11.1-.4.1-.25,0-.65.33.07.26-.22.43-.29,0-.09-.02-.17-.03-.26-.24-.13-.55-.34-.93-.39.05.32.09.64.12.95.09,0,.19,0,.26,0,0,.16-.1.23-.24.27.04.62.04,1.19,0,1.67.08,0,.15,0,.25.03-.34.32-.04.82-.45.99-.09.35-.2.68-.32,1.01.34-.13.66-.08,1.06-.03-.35.26-.68.22-1.11.16-.06.15-.11.3-.17.44.3-.1.62.11,1.03.16.38-.73.72-1.47.76-1.96-.32-.12-.54-.58-.37-.76Z"/>
    <path class="cls-1" d="M35.59,29.51s.03,0,.04,0v-.24s-.02,0-.03,0c0,.08,0,.17-.01.25Z"/>
    <path class="cls-1" d="M35.45,26.49c.05.1.1.14.17.13v-.26c-.07,0-.13.02-.19.04,0,.03.01.06.02.09Z"/>
    <path class="cls-1" d="M32.16,32.1c-.31.62-.64,1.19-.93,1.61-.67.96-1.25,1.79-.8,2.76,0,0,1.64-1.75,1.96-2.62.13-.36.47-.97.81-1.61-.31.01-.61.06-1.03-.15Z"/>
    <path class="cls-1" d="M35.46,30.45c.09.02.13.08.17.16v-.66s-.06-.01-.09-.02c-.02.18-.05.35-.08.53Z"/>
    <path class="cls-1" d="M32.25,35.91s-.48.77-1.37,1.62h4.75v-5.14c-.17-.07-.31-.17-.5-.23-.02-.21.26-.14.5-.12v-1.08c-.09-.03-.17-.09-.23-.16-.41,1.9-1.38,3.67-3.15,5.1Z"/>
    <path class="cls-1" d="M35.61,27.92s.01,0,.02,0v-.91c-.02.06-.04.13-.08.21.03.23.04.47.06.7Z"/>
    <path class="cls-1" d="M33.55,24.5c-.17.07-.35.13-.54.2-.02-.37.22-.5.46-.62-.2-1.08-.45-1.94-.76-2.14-.94-.58-2.72-2.9-2.92-4.01-.04-.24-.28-.63-.61-1.08h-.28c-.24-.34.21-.41-.43-.26-.05-.25.06-.33.12-.47-1.27-1.52-3.09-3.23-2.93-2.76.91,2.68.94,1.51,1.95,3.1,1.57,2.46,1.29,2.27,1.65,3.07.37.8,1.35,2.33,2.46,3.69.52.63.87,1.67,1.09,2.76.24.01.56.27.96.3-.07-.59-.15-1.2-.24-1.76Z"/>
    <path class="cls-1" d="M33.93,27.71c0-.07-.01-.15-.02-.23-.14.12-.24.21.02.23Z"/>
    <path class="cls-4" d="M35.45,26.49s-.01-.06-.02-.09c0,0-.02,0-.02,0,.01.04.03.05.04.08Z"/>
    <path class="cls-4" d="M35.4,23.69c-.27.04-.63.18-1.02.33.09.56.17,1.16.24,1.76.02,0,.05,0,.07,0,.19-.04.12-.33.14-.52.16.02.25-.03.28-.13.17.2.41.32.43.65-.11-.07-.23-.14-.43-.13.14.35.4.59.71.78-.04.18-.35.11-.57.13.01-.18.02-.37-.14-.39-.06.28-.22.23-.44.11,0,.09.02.18.03.26.06-.02.14-.02.27.03.05.17-.11.31-.23.42,0,.08.01.15.02.23.05,0,.12,0,.21,0-.04.07-.12.11-.2.15.05.57.09,1.07.12,1.44.51.06,1.11.21,1.53.2,0-.08,0-.16.01-.25-.46-.11-.68-.82-1.18-.9.36-.39.76-.48,1.18-.45-.01-.23-.03-.47-.05-.7-.05.12-.12.25-.28.36-.12.02-.13-.05-.14-.13.03-.11-.06-.12-.14-.13.42-.29.59-1.05,0-1.31.09-.14.21-.17.35-.15-.1-.49-.22-.97-.36-1.45-.18-.02-.34-.08-.42-.23Z"/>
    <g>
      <path class="cls-1" d="M27.01,38.57c.46.03.5-.52-.28-.78-.42-.14-.79-.5-1.09-.84h-.87c.27.23.49.46.69.63.36.3,1.09.95,1.55.99Z"/>
      <path class="cls-4" d="M26.73,37.8c.78.25.74.81.28.78-.45-.04-1.19-.68-1.55-.99-.2-.17-.42-.4-.69-.63h-1.65c-.05.29-.21.65-.58,1.14-.97,1.26-.98,4.22-.98,4.22-.02.55,1.3.1.98-.32-.33-.42-1.11-3.24,3.31-2.82,2.54.24,4.5-1.07,5.71-2.22h-5.92c.3.34.66.7,1.09.84Z"/>
      <path class="cls-4" d="M28.14,22.44c.2.06.42.15.6.11-.04.36-.29.28-.57.16.31,2.6-.1,3.92-.4,4.86-.58,1.83-2.67,4.57-2.67,4.57-2.76,1.98-2.14,3.24-2.11,3.75.02.31.21.59.13,1.05h1.65c-.21-.18-.44-.35-.74-.48-.68-.3-.36-.9-.36-.9.71.69,1.04.42,1.36.69.15.12.35.4.6.69h5.92c.89-.85,1.37-1.62,1.37-1.62,1.77-1.44,2.74-3.2,3.15-5.1-.09-.1-.15-.22-.12-.34.08-.02.14-.02.19-.01.03-.18.06-.35.08-.53-.68-.17-1.49-.34-1.4.15-.02,0-.04-.02-.06-.03-.04.49-.38,1.23-.76,1.96.2.03.42.01.67-.1v.52c-.33-.17-.57-.18-.81-.17-.34.65-.68,1.25-.81,1.61-.31.86-1.96,2.62-1.96,2.62-.45-.98.14-1.8.8-2.76.29-.42.63-.99.93-1.61-.05-.02-.09-.04-.15-.07.09-.11.19-.16.28-.19.06-.14.11-.29.17-.44-.06,0-.11-.02-.17-.03.07-.05.14-.07.21-.1.13-.33.23-.66.33-1.01-.09.04-.21.07-.4.06-.02-.33.22-.4.28-.65-.62.15-.46,0-.99-.13.5-.22.78-.34,1.31-.29.05-.48.05-1.05,0-1.67-.35.09-.97-.11-1.17-.14.16-.24.72-.13,1.15-.12-.03-.31-.07-.63-.12-.95-.15-.02-.3-.02-.46.02.1-.35.22-.45.38-.44-.22-1.09-.58-2.13-1.09-2.76-1.11-1.36-2.1-2.89-2.46-3.69-.37-.8-.08-.61-1.65-3.07-1.01-1.59-1.05-.42-1.95-3.1-.16-.47,1.65,1.24,2.93,2.76,0-.02.02-.03.02-.05.53-.1.31.5.71.52-.03.11-.14.13-.14.26h0c.33.45.57.84.61,1.08.2,1.12,1.97,3.43,2.92,4.01.32.19.57,1.05.76,2.14.15-.08.3-.16.38-.3.28.21.65.15.99.19-.95-2.93-2.62-5.62-4.28-7.37-.15.23-.78.03-1.1.11.12-.37-.2-.34-.14-.65.31.44.62.36.93.24-.18-.18-.37-.36-.55-.51-2.47-2.14-4.95-6.14-5.37-7.5-.31-.98,1.02-3.74-.47-1.88-.24.29-.39.63-.49.99.23.05.47.08.71.02.04.09-.36.14-.77.2-.39,1.87.66,4.2.66,4.2.69,1.66,1.24,3.12,1.71,4.45M27.33,16.53c-.27-.06-.61-.05-.57-.39h.57v.39ZM31.43,29.1h.57c-.08.36-1.09.51-.14.39-.12.3-.74.48-.99.26-.12-.5.68-.15.57-.65ZM31.71,31.46c-.58-.03-.59-.59-.85-.92.41.19.7.49.85.92Z"/>
    </g>
  </g>
  <path class="cls-2" d="M5.53,16.68s.31.31.68.98c.18.34.37.77.49,1.31.11.54.14,1.2-.08,1.89-.23.68-.71,1.37-1.39,1.79-.3.22-.75.39-1.02.52-.34.17-.71.33-.96.57-.6.41-1.09,1.1-1.47,1.81-.19.36-.31.76-.45,1.15-.1.4-.18.81-.27,1.21l-.12,1.23c-.01.41-.02.81-.03,1.22.02.4.04.8.06,1.19.04.39.12.77.17,1.14.16.74.32,1.45.56,2.1.19.67.52,1.23.76,1.79.16.26.32.5.47.73.07.12.14.23.21.35.08.1.16.2.24.3.32.38.57.75.85.98.52.5.82.81.82.81l-.05.08s-.37-.2-1.02-.59c-.35-.17-.65-.52-1.07-.86-.44-.32-.75-.85-1.18-1.35-.33-.56-.76-1.16-1-1.89-.31-.7-.48-1.49-.61-2.3-.04-.41-.09-.83-.11-1.25,0-.42,0-.85.02-1.28.06-.43.11-.85.17-1.28l.33-1.26c.15-.41.29-.82.45-1.21.19-.39.33-.79.53-1.16.22-.36.37-.76.63-1.09.23-.35.45-.7.77-1.01.29-.35.61-.55.92-.78.16-.11.32-.22.48-.32.14-.09.3-.17.41-.28.54-.38.9-.86,1.1-1.36.42-1.02.17-2.08,0-2.76-.2-.69-.37-1.08-.38-1.08l.08-.05Z"/>
  <path class="cls-2" d="M30.54,8.35s.02.1.09.26c.05.16.16.4.3.69.15.29.33.63.56,1.01.25.37.5.8.86,1.21.3.45.74.86,1.14,1.34.4.48.89.95,1.36,1.46.27.28.49.53.76.79.24.29.49.57.74.85.47.59.96,1.18,1.41,1.8l.65.95c.19.33.38.66.56,1,.33.68.63,1.37.88,2.05.25.68.45,1.35.57,2.01.14.65.22,1.28.25,1.87.04.58,0,1.13-.04,1.6-.09.48-.13.89-.28,1.21-.1.33-.24.57-.35.72-.1.15-.15.23-.15.23l-.09-.05s.02-.09.07-.26c.05-.17.12-.4.13-.73.05-.31.03-.71.02-1.14-.06-.45-.09-.94-.2-1.48-.09-.54-.22-1.12-.38-1.73-.16-.61-.34-1.25-.54-1.91-.2-.66-.44-1.33-.71-2.01-.28-.67-.55-1.36-.87-2.04l-.53-.98c-.2-.31-.42-.61-.64-.9-.24-.27-.49-.54-.75-.78-.28-.23-.59-.45-.86-.64-.57-.44-1.19-.79-1.66-1.28-.47-.48-.89-.95-1.2-1.46-.34-.48-.57-.97-.76-1.41-.19-.44-.3-.84-.37-1.18-.06-.34-.1-.6-.1-.79,0-.18,0-.28,0-.28h.1Z"/>
</svg>